<mxfile host="app.diagrams.net" modified="2021-01-29T08:59:34.459Z" agent="5.0 (X11; Linux x86_64) AppleWebKit/537.36 (KHTML, like Gecko) Chrome/88.0.4324.96 Safari/537.36" etag="bo79UXkvDEtZT1lLxQDY" version="14.2.7" type="github">
  <diagram id="OyPTWXYm99-E1_N1X-Yh" name="Page-1">
    <mxGraphModel dx="1422" dy="916" grid="1" gridSize="10" guides="1" tooltips="1" connect="1" arrows="1" fold="1" page="1" pageScale="1" pageWidth="827" pageHeight="1169" math="0" shadow="0">
      <root>
        <mxCell id="0" />
        <mxCell id="1" parent="0" />
        <mxCell id="_uZZtFi5tfqqFqeMPAoL-1" value="" style="rounded=0;whiteSpace=wrap;html=1;" vertex="1" parent="1">
          <mxGeometry x="54" y="40" width="120" height="100" as="geometry" />
        </mxCell>
        <mxCell id="_uZZtFi5tfqqFqeMPAoL-2" value="" style="rounded=0;whiteSpace=wrap;html=1;" vertex="1" parent="1">
          <mxGeometry x="194" y="40" width="120" height="50" as="geometry" />
        </mxCell>
        <mxCell id="_uZZtFi5tfqqFqeMPAoL-3" value="" style="rounded=0;whiteSpace=wrap;html=1;" vertex="1" parent="1">
          <mxGeometry x="194" y="100" width="80" height="80" as="geometry" />
        </mxCell>
        <mxCell id="_uZZtFi5tfqqFqeMPAoL-4" value="" style="rounded=0;whiteSpace=wrap;html=1;" vertex="1" parent="1">
          <mxGeometry x="54" y="150" width="120" height="30" as="geometry" />
        </mxCell>
        <mxCell id="_uZZtFi5tfqqFqeMPAoL-6" value="" style="rounded=0;whiteSpace=wrap;html=1;" vertex="1" parent="1">
          <mxGeometry x="294" y="100" width="120" height="80" as="geometry" />
        </mxCell>
        <mxCell id="_uZZtFi5tfqqFqeMPAoL-7" value="" style="rounded=0;whiteSpace=wrap;html=1;" vertex="1" parent="1">
          <mxGeometry x="334" y="40" width="80" height="50" as="geometry" />
        </mxCell>
        <mxCell id="_uZZtFi5tfqqFqeMPAoL-8" value="" style="endArrow=classic;html=1;strokeWidth=2;" edge="1" parent="1">
          <mxGeometry width="50" height="50" relative="1" as="geometry">
            <mxPoint x="40" y="200" as="sourcePoint" />
            <mxPoint x="430" y="200" as="targetPoint" />
          </mxGeometry>
        </mxCell>
        <mxCell id="_uZZtFi5tfqqFqeMPAoL-9" value="" style="endArrow=classic;html=1;strokeWidth=2;" edge="1" parent="1">
          <mxGeometry width="50" height="50" relative="1" as="geometry">
            <mxPoint x="40" y="200" as="sourcePoint" />
            <mxPoint x="40" y="30" as="targetPoint" />
          </mxGeometry>
        </mxCell>
        <mxCell id="_uZZtFi5tfqqFqeMPAoL-10" value="&lt;font style=&quot;font-size: 16px&quot;&gt;Size nightmare&lt;/font&gt;" style="text;html=1;strokeColor=none;fillColor=none;align=center;verticalAlign=middle;whiteSpace=wrap;rounded=0;" vertex="1" parent="1">
          <mxGeometry x="54" y="10" width="350" height="20" as="geometry" />
        </mxCell>
      </root>
    </mxGraphModel>
  </diagram>
</mxfile>
